<?xml version="1.0" standalone="no"?>
<!DOCTYPE svg PUBLIC "-//W3C//DTD SVG 20010904//EN"
 "http://www.w3.org/TR/2001/REC-SVG-20010904/DTD/svg10.dtd">
<svg version="1.0" xmlns="http://www.w3.org/2000/svg"
 width="512.000000pt" height="512.000000pt" viewBox="0 0 512.000000 512.000000"
 preserveAspectRatio="xMidYMid meet">

<g transform="translate(0.000000,512.000000) scale(0.100000,-0.100000)"
fill="#116CF5" stroke="none">
<path d="M2380 5113 c-212 -15 -505 -77 -695 -148 -188 -69 -480 -220 -566
-292 -27 -23 -30 -31 -27 -73 l3 -47 -88 -70 c-85 -69 -89 -71 -115 -57 -15 8
-35 14 -46 14 -25 0 -180 -152 -279 -275 -633 -783 -744 -1856 -288 -2760 133
-263 290 -474 507 -685 403 -390 886 -620 1469 -702 115 -16 481 -16 605 0
674 88 1255 408 1681 925 586 713 740 1707 395 2565 -196 488 -531 897 -976
1193 -121 81 -380 211 -524 264 -317 117 -718 173 -1056 148z m655 -214 c895
-179 1613 -866 1841 -1759 17 -68 54 -263 50 -267 -1 -1 -24 5 -51 13 -67 21
-176 14 -234 -14 -48 -24 -61 -19 -61 25 0 35 -66 281 -98 368 -156 418 -440
772 -817 1017 -111 73 -301 166 -420 208 -95 33 -315 90 -350 90 -41 0 -46 13
-24 60 35 73 36 187 3 274 -7 18 -6 18 161 -15z m-304 -469 c752 -77 1373
-569 1608 -1275 226 -679 52 -1415 -453 -1921 -561 -561 -1407 -709 -2126
-372 -758 355 -1192 1186 -1050 2010 74 433 289 816 619 1105 379 332 909 502
1402 453z"/>
<path d="M2410 4003 c-168 -18 -364 -78 -520 -159 -385 -200 -658 -563 -752
-997 -29 -136 -32 -417 -5 -550 114 -566 528 -1005 1076 -1142 495 -123 1018
22 1376 383 207 208 353 489 406 782 21 113 18 373 -5 495 -37 199 -115 389
-232 567 -62 94 -278 309 -371 371 -214 141 -418 217 -663 247 -80 9 -234 11
-310 3z m388 -188 c383 -73 721 -326 897 -671 52 -102 107 -265 126 -374 7
-41 13 -136 13 -210 0 -158 -13 -246 -60 -390 -66 -205 -158 -354 -314 -510
-157 -157 -306 -249 -510 -314 -144 -47 -232 -60 -390 -60 -153 0 -244 13
-380 56 -452 141 -784 516 -877 986 -23 117 -23 347 0 464 109 555 549 968
1107 1037 97 13 284 6 388 -14z"/>
<path d="M1925 3413 c-98 -13 -245 -91 -289 -154 -25 -36 -20 -76 13 -110 43
-43 78 -39 142 16 62 53 125 75 214 75 89 0 152 -22 214 -75 54 -47 84 -55
124 -33 33 17 46 39 47 77 0 29 -9 43 -51 83 -104 97 -256 142 -414 121z"/>
<path d="M3011 3409 c-77 -13 -170 -61 -230 -117 -62 -59 -68 -96 -22 -143 42
-42 75 -38 141 16 64 53 128 75 215 75 89 0 152 -22 214 -75 64 -55 99 -59
142 -16 37 37 38 79 4 119 -37 44 -123 99 -189 122 -70 24 -199 33 -275 19z"/>
<path d="M1869 3047 c-102 -43 -173 -110 -218 -206 -22 -48 -26 -69 -26 -151
0 -86 3 -101 32 -162 142 -299 554 -299 696 0 29 61 32 76 32 162 0 82 -4 103
-27 152 -36 76 -109 153 -183 191 -52 27 -72 31 -155 34 -82 3 -103 0 -151
-20z m228 -168 c100 -48 148 -169 108 -267 -41 -97 -142 -152 -243 -131 -93
19 -172 114 -172 208 0 151 170 257 307 190z"/>
<path d="M3010 3061 c-105 -34 -202 -120 -247 -218 -53 -116 -40 -262 34 -371
169 -248 537 -218 666 56 29 61 32 76 32 162 0 82 -4 103 -27 152 -37 80 -107
151 -187 191 -57 28 -77 32 -156 34 -49 1 -101 -1 -115 -6z m197 -182 c132
-64 162 -226 61 -335 -84 -91 -211 -93 -299 -5 -85 84 -91 195 -16 287 60 72
168 95 254 53z"/>
<path d="M2075 2025 c-52 -51 -21 -144 84 -250 185 -187 534 -209 749 -47 137
103 199 239 136 297 -54 50 -99 29 -167 -80 -60 -94 -173 -147 -317 -147 -144
0 -254 52 -316 147 -71 110 -118 132 -169 80z"/>
</g>
</svg>
